<svg xmlns="http://www.w3.org/2000/svg" version="1.1" xmlns:xlink="http://www.w3.org/1999/xlink" xmlns:svgjs="http://svgjs.dev/svgjs" width="1440" height="560" preserveAspectRatio="none" viewBox="0 0 1440 560"><g mask="url(&quot;#SvgjsMask1069&quot;)" fill="none"><circle r="72.83478606868948" cx="856.32" cy="98.46" stroke="rgba(255, 142, 60, 1)" stroke-width="1.47" stroke-dasharray="3, 3"></circle><path d="M209.33 269.18a5.6 5.6 0 1 0-11.16 0.98 5.6 5.6 0 1 0 11.16-0.98zM193.39 270.58a5.6 5.6 0 1 0-11.16 0.99 5.6 5.6 0 1 0 11.16-0.99zM177.45 271.99a5.6 5.6 0 1 0-11.15 0.98 5.6 5.6 0 1 0 11.15-0.98zM161.51 273.39a5.6 5.6 0 1 0-11.15 0.99 5.6 5.6 0 1 0 11.15-0.99z" stroke="rgba(255, 142, 60, 1)" stroke-width="1.98" stroke-dasharray="3, 2"></path><path d="M993.4499999999999 74.99 L1127.34 76.56L1154.5246124586245 -18.354612458624516z" stroke="rgba(255, 142, 60, 1)" stroke-width="2.17" stroke-dasharray="4, 4"></path><path d="M1122.31 615.31 L1159.32 542.89L1170.4689149981161 608.753914998116z" stroke="rgba(255, 142, 60, 1)" stroke-width="1"></path><circle r="57.337305237342754" cx="255.21" cy="377.9" stroke="rgba(255, 142, 60, 1)" stroke-width="2.1" stroke-dasharray="3, 3"></circle><rect width="60" height="60" clip-path="url(&quot;#SvgjsClipPath1070&quot;)" x="848.86" y="-6.89" fill="url(&quot;#SvgjsPattern1071&quot;)" transform="rotate(255.11, 878.86, 23.11)"></rect><rect width="264.96" height="264.96" clip-path="url(&quot;#SvgjsClipPath1072&quot;)" x="1189.68" y="310.47" fill="url(&quot;#SvgjsPattern1073&quot;)" transform="rotate(98.91, 1322.16, 442.95)"></rect><path d="M185.39 11.59L194.97 3.1 205.36 10.59 214.94 2.09 225.34 9.58 234.92 1.08 245.31 8.57M185.79 19.58L195.37 11.09 205.76 18.58 215.35 10.08 225.74 17.57 235.32 9.07 245.71 16.56M186.19 27.57L195.78 19.08 206.17 26.57 215.75 18.07 226.14 25.56 235.73 17.06 246.12 24.55" stroke="rgba(255, 142, 60, 1)" stroke-width="2.15" stroke-dasharray="3, 3"></path><path d="M856.05 301.14L850.54 289.58 860.6 281.66 855.09 270.1 865.16 262.19 859.64 250.63 869.71 242.71" stroke="rgba(255, 142, 60, 1)" stroke-width="1" stroke-dasharray="4, 4"></path><path d="M907.51 236.79 L754.07 259.89L755.9364188461824 173.48641884618243z" stroke="rgba(255, 142, 60, 1)" stroke-width="1" stroke-dasharray="3, 3"></path><rect width="156.52" height="156.52" clip-path="url(&quot;#SvgjsClipPath1074&quot;)" x="-28.98" y="348.86" fill="url(&quot;#SvgjsPattern1075&quot;)" transform="rotate(204.47, 49.28, 427.12)"></rect><path d="M1090.79 315.07 L1100.93 289.03999999999996L1077.137741949413 283.33274194941305z" stroke="rgba(255, 142, 60, 1)" stroke-width="2.08" stroke-dasharray="3, 2"></path></g><defs><mask id="SvgjsMask1069"><rect width="1440" height="560" fill="#ffffff"></rect></mask><pattern x="0" y="0" width="6" height="6" patternUnits="userSpaceOnUse" id="SvgjsPattern1071"><path d="M3 1L3 5M1 3L5 3" stroke="rgba(255, 142, 60, 1)" fill="none" stroke-width="1"></path></pattern><clipPath id="SvgjsClipPath1070"><circle r="15" cx="878.86" cy="23.11"></circle></clipPath><pattern x="0" y="0" width="11.04" height="11.04" patternUnits="userSpaceOnUse" id="SvgjsPattern1073"><path d="M5.52 1L5.52 10.04M1 5.52L10.04 5.52" stroke="rgba(255, 142, 60, 1)" fill="none" stroke-width="4.25"></path></pattern><clipPath id="SvgjsClipPath1072"><circle r="66.24" cx="1322.16" cy="442.95"></circle></clipPath><pattern x="0" y="0" width="156.52" height="11.18" patternUnits="userSpaceOnUse" id="SvgjsPattern1075"><rect width="156.52" height="5.59" x="0" y="0" fill="rgba(255, 142, 60, 1)"></rect><rect width="156.52" height="5.59" x="0" y="5.59" fill="rgba(0, 0, 0, 0)"></rect></pattern><clipPath id="SvgjsClipPath1074"><circle r="39.13" cx="49.28" cy="427.12"></circle></clipPath></defs></svg>