<svg xmlns="http://www.w3.org/2000/svg" version="1.1" xmlns:xlink="http://www.w3.org/1999/xlink" xmlns:svgjs="http://svgjs.dev/svgjs" width="1440" height="560" preserveAspectRatio="none" viewBox="0 0 1440 560"><g mask="url(&quot;#SvgjsMask1118&quot;)" fill="none"><rect width="122.8" height="122.8" clip-path="url(&quot;#SvgjsClipPath1119&quot;)" x="34.06" y="-37.43" fill="url(&quot;#SvgjsPattern1120&quot;)" transform="rotate(207.78, 95.46, 23.97)"></rect><rect width="325" height="325" clip-path="url(&quot;#SvgjsClipPath1121&quot;)" x="390.93" y="255.73" fill="url(&quot;#SvgjsPattern1122&quot;)" transform="rotate(79.23, 553.43, 418.23)"></rect><path d="M236.55 232.48 L285.32 231.4L291.03205235929494 262.03705235929493z" stroke="rgba(255, 142, 60, 1)" stroke-width="1" stroke-dasharray="2, 2"></path><rect width="312" height="312" clip-path="url(&quot;#SvgjsClipPath1123&quot;)" x="314.42" y="340.19" fill="url(&quot;#SvgjsPattern1124&quot;)" transform="rotate(161.58, 470.42, 496.19)"></rect><path d="M25.28 127.14L14.41 133.91 5.42 124.79-5.45 131.56-14.44 122.44-25.31 129.2-34.3 120.08M26.23 119.2L15.35 125.97 6.36 116.84-4.51 123.61-13.5 114.49-24.37 121.26-33.36 112.14M27.17 111.25L16.3 118.02 7.31 108.9-3.57 115.67-12.55 106.55-23.43 113.31-32.42 104.19" stroke="rgba(255, 142, 60, 1)" stroke-width="2.39" stroke-dasharray="2, 2"></path><rect width="252" height="252" clip-path="url(&quot;#SvgjsClipPath1125&quot;)" x="553.61" y="-68.12" fill="url(&quot;#SvgjsPattern1126&quot;)" transform="rotate(232.45, 679.61, 57.88)"></rect><path d="M653.67 161.74a5.6 5.6 0 1 0 3.79 10.54 5.6 5.6 0 1 0-3.79-10.54zM659.09 176.8a5.6 5.6 0 1 0 3.79 10.54 5.6 5.6 0 1 0-3.79-10.54zM664.51 191.85a5.6 5.6 0 1 0 3.79 10.54 5.6 5.6 0 1 0-3.79-10.54zM669.93 206.91a5.6 5.6 0 1 0 3.79 10.53 5.6 5.6 0 1 0-3.79-10.53z" stroke="rgba(255, 142, 60, 1)" stroke-width="2.64" stroke-dasharray="3, 2"></path><rect width="333.84" height="333.84" clip-path="url(&quot;#SvgjsClipPath1127&quot;)" x="611.2" y="-43.51" fill="url(&quot;#SvgjsPattern1128&quot;)" transform="rotate(49.08, 778.12, 123.41)"></rect><circle r="75.60167043741535" cx="1318.13" cy="414.55" fill="rgba(255, 142, 60, 1)"></circle><circle r="46.666666666666664" cx="241.33" cy="499.04" fill="rgba(255, 142, 60, 1)"></circle><path d="M845.15 480.29 L741.3199999999999 535.17L838.8220495647702 553.3170495647703z" stroke="rgba(255, 142, 60, 1)" stroke-width="1" stroke-dasharray="2, 2"></path><path d="M489.91999999999996 261.6 L542.97 286.75L475.3178926912512 315.30210730874876z" stroke="rgba(255, 142, 60, 1)" stroke-width="1" stroke-dasharray="4, 4"></path></g><defs><mask id="SvgjsMask1118"><rect width="1440" height="560" fill="#ffffff"></rect></mask><pattern x="0" y="0" width="12.28" height="12.28" patternUnits="userSpaceOnUse" id="SvgjsPattern1120"><path d="M6.14 1L6.14 11.28M1 6.14L11.28 6.14" stroke="rgba(255, 142, 60, 1)" fill="none" stroke-width="4.89"></path></pattern><clipPath id="SvgjsClipPath1119"><circle r="30.7" cx="95.46" cy="23.97"></circle></clipPath><pattern x="0" y="0" width="12.5" height="12.5" patternUnits="userSpaceOnUse" id="SvgjsPattern1122"><path d="M6.25 1L6.25 11.5M1 6.25L11.5 6.25" stroke="rgba(255, 142, 60, 1)" fill="none" stroke-width="3.47"></path></pattern><clipPath id="SvgjsClipPath1121"><circle r="81.25" cx="553.43" cy="418.23"></circle></clipPath><pattern x="0" y="0" width="312" height="6" patternUnits="userSpaceOnUse" id="SvgjsPattern1124"><rect width="312" height="3" x="0" y="0" fill="rgba(255, 142, 60, 1)"></rect><rect width="312" height="3" x="0" y="3" fill="rgba(0, 0, 0, 0)"></rect></pattern><clipPath id="SvgjsClipPath1123"><circle r="78" cx="470.42" cy="496.19"></circle></clipPath><pattern x="0" y="0" width="6" height="6" patternUnits="userSpaceOnUse" id="SvgjsPattern1126"><path d="M0 6L3 0L6 6" stroke="rgba(255, 142, 60, 1)" fill="none"></path></pattern><clipPath id="SvgjsClipPath1125"><circle r="63" cx="679.61" cy="57.88"></circle></clipPath><pattern x="0" y="0" width="12.84" height="12.84" patternUnits="userSpaceOnUse" id="SvgjsPattern1128"><path d="M0 12.84L6.42 0L12.84 12.84" stroke="rgba(255, 142, 60, 1)" fill="none"></path></pattern><clipPath id="SvgjsClipPath1127"><circle r="83.46" cx="778.12" cy="123.41"></circle></clipPath></defs></svg>