<svg xmlns="http://www.w3.org/2000/svg" version="1.1" xmlns:xlink="http://www.w3.org/1999/xlink" xmlns:svgjs="http://svgjs.dev/svgjs" width="1440" height="560" preserveAspectRatio="none" viewBox="0 0 1440 560"><g mask="url(&quot;#SvgjsMask1493&quot;)" fill="none"><path d="M1290.18 443.53 L1159.2 342.35999999999996L1118.8072434486326 498.8277565513675z" stroke="rgba(255, 142, 60, 1)" stroke-width="1"></path><rect width="104.8" height="104.8" clip-path="url(&quot;#SvgjsClipPath1494&quot;)" x="1311.43" y="379.74" fill="url(&quot;#SvgjsPattern1495&quot;)" transform="rotate(206.71, 1363.83, 432.14)"></rect><circle r="46.666666666666664" cx="1385.85" cy="243.47" fill="rgba(255, 142, 60, 1)"></circle><rect width="204" height="204" clip-path="url(&quot;#SvgjsClipPath1496&quot;)" x="76.51" y="39.69" fill="url(&quot;#SvgjsPattern1497&quot;)" transform="rotate(122.38, 178.51, 141.69)"></rect><rect width="72.8" height="72.8" clip-path="url(&quot;#SvgjsClipPath1498&quot;)" x="133.05" y="219.98" fill="url(&quot;#SvgjsPattern1499&quot;)" transform="rotate(157.56, 169.45, 256.38)"></rect><path d="M85.61 511.23a5.6 5.6 0 1 0-9.81-5.4 5.6 5.6 0 1 0 9.81 5.4zM71.6 503.52a5.6 5.6 0 1 0-9.82-5.4 5.6 5.6 0 1 0 9.82 5.4zM57.58 495.8a5.6 5.6 0 1 0-9.81-5.4 5.6 5.6 0 1 0 9.81 5.4zM43.56 488.09a5.6 5.6 0 1 0-9.81-5.4 5.6 5.6 0 1 0 9.81 5.4z" stroke="rgba(255, 142, 60, 1)" stroke-width="2.26" stroke-dasharray="4, 4"></path><rect width="264" height="264" clip-path="url(&quot;#SvgjsClipPath1500&quot;)" x="375.97" y="-99.29" fill="url(&quot;#SvgjsPattern1501&quot;)" transform="rotate(292.56, 507.97, 32.71)"></rect><path d="M823.09 528.39 L844.97 534.1L848.7652725062346 516.5097274937654z" fill="rgba(255, 142, 60, 1)"></path><rect width="131.84" height="131.84" clip-path="url(&quot;#SvgjsClipPath1502&quot;)" x="915.13" y="415.03" fill="url(&quot;#SvgjsPattern1503&quot;)" transform="rotate(323.85, 981.05, 480.95)"></rect><rect width="300" height="300" clip-path="url(&quot;#SvgjsClipPath1504&quot;)" x="880.81" y="-100.04" fill="url(&quot;#SvgjsPattern1505&quot;)" transform="rotate(287.32, 1030.81, 49.96)"></rect><path d="M1341.89 166.29L1335.08 155.44 1344.16 146.42 1337.35 135.57 1346.44 126.55 1339.63 115.7 1348.71 106.68M1349.84 167.2L1343.03 156.35 1352.11 147.33 1345.3 136.48 1354.39 127.46 1347.58 116.61 1356.66 107.59" stroke="rgba(255, 142, 60, 1)" stroke-width="1.12"></path><rect width="147.84" height="147.84" clip-path="url(&quot;#SvgjsClipPath1506&quot;)" x="1270.21" y="260.24" fill="url(&quot;#SvgjsPattern1507&quot;)" transform="rotate(117.06, 1344.13, 334.16)"></rect></g><defs><mask id="SvgjsMask1493"><rect width="1440" height="560" fill="#ffffff"></rect></mask><pattern x="0" y="0" width="10.48" height="10.48" patternUnits="userSpaceOnUse" id="SvgjsPattern1495"><path d="M5.24 1L5.24 9.48M1 5.24L9.48 5.24" stroke="rgba(255, 142, 60, 1)" fill="none" stroke-width="2.08"></path></pattern><clipPath id="SvgjsClipPath1494"><circle r="26.2" cx="1363.83" cy="432.14"></circle></clipPath><pattern x="0" y="0" width="204" height="6" patternUnits="userSpaceOnUse" id="SvgjsPattern1497"><rect width="204" height="3" x="0" y="0" fill="rgba(255, 142, 60, 1)"></rect><rect width="204" height="3" x="0" y="3" fill="rgba(0, 0, 0, 0)"></rect></pattern><clipPath id="SvgjsClipPath1496"><circle r="51" cx="178.51" cy="141.69"></circle></clipPath><pattern x="0" y="0" width="7.28" height="7.28" patternUnits="userSpaceOnUse" id="SvgjsPattern1499"><path d="M0 7.28L3.64 0L7.28 7.28" stroke="rgba(255, 142, 60, 1)" fill="none"></path></pattern><clipPath id="SvgjsClipPath1498"><circle r="18.2" cx="169.45" cy="256.38"></circle></clipPath><pattern x="0" y="0" width="6" height="6" patternUnits="userSpaceOnUse" id="SvgjsPattern1501"><path d="M0 6L3 0L6 6" stroke="rgba(255, 142, 60, 1)" fill="none"></path></pattern><clipPath id="SvgjsClipPath1500"><circle r="66" cx="507.97" cy="32.71"></circle></clipPath><pattern x="0" y="0" width="8.24" height="8.24" patternUnits="userSpaceOnUse" id="SvgjsPattern1503"><path d="M4.12 1L4.12 7.24M1 4.12L7.24 4.12" stroke="rgba(255, 142, 60, 1)" fill="none" stroke-width="1.13"></path></pattern><clipPath id="SvgjsClipPath1502"><circle r="32.96" cx="981.05" cy="480.95"></circle></clipPath><pattern x="0" y="0" width="6" height="6" patternUnits="userSpaceOnUse" id="SvgjsPattern1505"><path d="M0 6L3 0L6 6" stroke="rgba(255, 142, 60, 1)" fill="none"></path></pattern><clipPath id="SvgjsClipPath1504"><circle r="75" cx="1030.81" cy="49.96"></circle></clipPath><pattern x="0" y="0" width="6.16" height="6.16" patternUnits="userSpaceOnUse" id="SvgjsPattern1507"><path d="M0 6.16L3.08 0L6.16 6.16" stroke="rgba(255, 142, 60, 1)" fill="none"></path></pattern><clipPath id="SvgjsClipPath1506"><circle r="36.96" cx="1344.13" cy="334.16"></circle></clipPath></defs></svg>